<svg xmlns="http://www.w3.org/2000/svg" width="380" height="380" fill="none"><path fill="#82E9B1" d="M50 380c-27.614 0-50-22.386-50-50V50C0 22.386 22.386 0 50 0h280c27.614 0 50 22.386 50 50v280c0 27.614-22.386 50-50 50H50Z"/><path fill="#111722" fill-rule="evenodd" d="M0 205.429V330c0 27.614 22.386 50 50 50h280c27.614 0 50-22.386 50-50V50c0-27.614-22.386-50-50-50H50C22.386 0 0 22.386 0 50v155.429Zm153.265-168.34c6.668 2.995 11.584 9.682 13.537 18.407 1.15 5.142 1.06 9.455-.562 27.05-.531 5.755-.447 6.027 2.997 9.653 4.716 4.967 9.229 7.611 12.996 7.615 4.586.006 15.867 4.569 19.356 7.829 1.676 1.568 6.64 4.972 11.029 7.564 4.389 2.593 8.201 4.971 8.473 5.286.271.315 2.936 2.557 5.922 4.982 8.549 6.943 16.839 15.06 18.354 17.969.762 1.467 1.386 3.936 1.386 5.489 0 2.238-10.746 25.251-16.472 35.275-3.068 5.369-4.676 10.419-5.042 15.823-.399 5.904-.352 6.029 5.791 15.298 3.407 5.141 6.785 10.013 7.506 10.827.721.814 3.152 3.881 5.4 6.814 3.428 4.469 3.907 5.626 2.96 7.142-1.652 2.646-1.411 3.817 1.306 6.335 2.702 2.503 3.385 2.758 11.876 4.422 7.171 1.405 13.016 3.957 20.234 8.832 10.875 7.347 19.955 11.624 26.156 12.318 5.871.66 11.991 2.009 15.792 3.484 1.085.421 3.917 1.35 6.293 2.064a5.51 5.51 0 0 1 3.9 5.789l-.172 1.84c-.326 3.481-.983 6.834-1.463 7.45-1.072 1.379-3.13 9.611-3.13 12.52 0 6.566-12.74 24.626-17.372 24.626-1.042 0-3.164-1.177-4.717-2.617-2.64-2.448-2.781-2.965-2.19-8 .348-2.96 1.104-6.265 1.682-7.343.718-1.343.735-2.785.051-4.584-.549-1.443-1.18-4.876-1.402-7.627-.497-6.174-3.666-10.777-9.117-13.242-6.643-3.004-20.778-6.759-33.849-8.989-3.961-.676-7.429-1.599-7.708-2.05-.279-.451-1.218-.821-2.087-.821-3.179 0-19.662-9.047-24.46-13.426-7.013-6.401-10.326-8.28-14.6-8.284-3.087-.003-4.598-.803-8.613-4.558-3.979-3.722-5.325-4.44-7.36-3.929-1.37.343-2.491 1.054-2.491 1.579 0 .525-1.889 2.181-4.195 3.681-2.308 1.499-4.781 3.281-5.499 3.961-.716.68-3.381 2.44-5.922 3.913-2.54 1.474-4.766 3.028-4.947 3.456-.747 1.762-5.191.582-8.22-2.185-3.841-3.508-6.37-3.7-11.197-.853-3.14 1.853-8.384 9.918-8.384 12.893 0 .447-.852 2.695-1.892 4.997a518.21 518.21 0 0 0-3.81 8.687c-2.081 4.881-7.224 12.611-13.135 19.737-2.052 2.475-4.033 5.699-4.401 7.165-.368 1.467-1.024 2.885-1.458 3.153-.433.268-1.343 3.595-2.023 7.393-.679 3.798-1.551 6.906-1.939 6.906-.388 0-.973 1.337-1.3 2.97-.57 2.856-4.016 8.585-6.068 10.093-2.339 1.719-8.939.604-15.994-2.699-4.057-1.9-7.915-3.455-8.572-3.455-.657 0-1.617-.379-2.133-.842-.515-.462-3.158-1.398-5.873-2.078-6.46-1.622-15.221-5.608-18.012-8.195-2.736-2.537-2.79-4.628-.25-9.606 2.516-4.932 5.502-5.559 16.927-3.556 7.718 1.352 9.128 1.345 14.746-.081 3.416-.867 6.682-1.985 7.258-2.485.575-.501 2.417-1.721 4.092-2.713 3.187-1.886 5.932-6.788 8.911-15.917.962-2.947 2.327-6.468 3.033-7.825.705-1.358 1.289-3.134 1.296-3.948.006-.815.626-2.659 1.378-4.1.751-1.441 1.93-4.328 2.618-6.415 2.939-8.914 10.954-22.917 16.714-29.204 4.422-4.824 5.939-7.216 5.939-9.359 0-3.106 1.951-5.219 9.094-9.849 2.327-1.509 4.453-2.976 4.724-3.259.271-.284 3.103-2.287 6.293-4.452 3.189-2.163 6.016-4.497 6.282-5.185.458-1.191-1.47-7.079-2.66-8.126-.309-.271-2.409-4.268-4.667-8.883-3.822-7.808-5.058-10.772-8.237-19.74-.673-1.9-1.552-4.135-1.953-4.968-.401-.832-1.049-2.971-1.441-4.754-.834-3.799-2.875-4.922-5.251-2.889-4.221 3.613-17.985 12.487-21.13 13.624-7.22 2.61-18.508-3.818-22.195-12.64-1.457-3.489-7.852-14.041-9.101-15.022-1.559-1.223-3.057-6.408-3.057-10.579 0-4.121.431-4.979 4.439-8.818 7.53-7.215 11.508-6.775 18.492 2.047 4.035 5.096 4.346 7.98 1.203 11.124-2.235 2.234-1.696 4.916 1.434 7.146 4.457 3.173 5.986 2.596 8.978-3.388 2.001-4.003 10.657-12.637 14.311-14.275 3.07-1.376 10.806-10.219 13.233-15.125 1.265-2.556 1.206-2.99-.652-4.847-1.645-1.645-3.063-1.987-7.31-1.763-12.963.684-13.338.529-17.209-7.11-1.676-3.307-3.011-4.75-4.395-4.75-2.519 0-3.368-2.165-2.221-5.662.846-2.578.012-6.805-1.932-9.8-.411-.632-1.032-3.871-1.379-7.198-.445-4.257-1.136-6.319-2.333-6.96-2.577-1.379-5.153-7.549-4.445-10.647 1.273-5.563 3.693-7.189 17.786-11.95 15.561-5.259 21.885-6.09 27.421-3.602ZM204.9 144.082c-.339.548.062 5.204.89 10.35 1.622 10.075 5.672 20.4 8.002 20.4 1.659 0 1.719-.167 3.376-9.376.683-3.8 1.845-7.786 2.583-8.857.737-1.07 1.34-3.205 1.34-4.743 0-2.436-.691-3.101-5.395-5.181-6.993-3.093-10.036-3.823-10.796-2.593Z" clip-rule="evenodd"/></svg>